<svg id="Capa_1" enable-background="new 0 0 512.002 512.002" height="512" viewBox="0 0 512.002 512.002" width="512" xmlns="http://www.w3.org/2000/svg"><g><g><g><path d="m471.402 262.256c3.584-3.407 3.582-9.108-.002-12.515-16.753-15.923-53.658-44.979-104.562-44.979-9.444 0-18.398 1.01-26.838 2.741 5.719-6.445 11.071-13.694 15.793-21.873 25.453-44.086 18.741-90.577 13.328-113.046-1.158-4.808-6.096-7.656-10.839-6.255-22.166 6.547-65.782 23.979-91.234 68.064-4.717 8.171-8.325 16.424-11.046 24.592-2.721-8.168-6.328-16.421-11.046-24.592-25.453-44.087-69.072-61.519-91.237-68.065-4.742-1.4-9.678 1.452-10.837 6.259-5.413 22.47-12.124 68.959 13.328 113.043 4.722 8.178 10.074 15.428 15.793 21.873-8.441-1.731-17.395-2.741-26.839-2.741-50.907-.001-87.812 29.058-104.565 44.98-3.584 3.407-3.582 9.108.002 12.515 16.753 15.923 53.658 44.978 104.562 44.978 9.444 0 18.398-1.01 26.839-2.741-5.719 6.445-11.071 13.694-15.793 21.873-25.454 44.086-18.741 90.577-13.328 113.046 1.158 4.808 6.096 7.656 10.839 6.255 22.166-6.547 65.782-23.979 91.234-68.064 4.717-8.171 8.325-16.424 11.046-24.592 2.721 8.168 6.328 16.421 11.046 24.592 25.453 44.087 69.072 61.518 91.237 68.065 4.742 1.4 9.678-1.452 10.837-6.259 5.413-22.47 12.124-68.958-13.329-113.043-4.722-8.178-10.074-15.428-15.793-21.873 8.441 1.731 17.395 2.741 26.839 2.741 50.907.002 87.813-29.056 104.565-44.979z" fill="#7dd9c2"/><g fill="#beece1"><path d="m385.521 218.143c-60.157 34.732-113.294 37.542-129.52 37.857 8.386-13.894 37.388-58.507 97.545-93.239 39.348-22.718 75.693-31.778 100.67-35.417 14.22-2.071 21.215 10.045 12.311 21.324-15.639 19.812-41.658 46.757-81.006 69.475z"/><path d="m353.546 349.239c-60.157-34.732-89.159-79.344-97.545-93.239 16.226.315 69.363 3.126 129.52 37.857 39.348 22.718 65.368 49.663 81.007 69.474 8.904 11.279 1.909 23.395-12.311 21.324-24.978-3.638-61.323-12.698-100.671-35.416z"/><path d="m224.026 387.096c0-69.463 24.135-116.886 31.975-131.096 7.84 14.21 31.975 61.633 31.975 131.096 0 45.436-10.326 81.442-19.663 104.891-5.316 13.351-19.307 13.351-24.623 0-9.338-23.449-19.664-59.456-19.664-104.891z"/><path d="m126.481 293.857c60.157-34.731 113.294-37.542 129.52-37.857-8.386 13.894-37.388 58.507-97.545 93.239-39.348 22.718-75.693 31.778-100.67 35.417-14.22 2.071-21.215-10.044-12.311-21.324 15.639-19.812 41.658-46.757 81.006-69.475z"/><path d="m158.456 162.761c60.157 34.732 89.159 79.344 97.545 93.239-16.226-.315-69.363-3.126-129.52-37.857-39.348-22.718-65.368-49.663-81.007-69.474-8.904-11.279-1.909-23.395 12.311-21.324 24.978 3.638 61.323 12.698 100.671 35.416z"/><path d="m287.976 124.904c0 69.463-24.135 116.886-31.975 131.096-7.84-14.21-31.975-61.633-31.975-131.096 0-45.436 10.326-81.442 19.663-104.891 5.316-13.351 19.307-13.351 24.623 0 9.338 23.45 19.664 59.455 19.664 104.891z"/></g><circle cx="256.001" cy="256" fill="#faf7f5" r="55.418"/></g></g><g><path d="m422.22 306.232c24.562-9.972 43.57-24.847 56.067-36.721 3.684-3.499 5.798-8.417 5.802-13.492.003-5.082-2.108-10.01-5.801-13.527-12.498-11.876-31.506-26.751-56.068-36.723 19.723-14.928 37.221-31.984 52.161-50.904 6.709-8.503 7.982-18.798 3.323-26.867s-14.213-12.112-24.935-10.553c-23.842 3.472-47.364 10.098-70.169 19.722 3.655-26.26.278-50.157-3.759-66.921-1.192-4.943-4.4-9.235-8.802-11.775-4.4-2.54-9.719-3.172-14.591-1.73-16.534 4.881-38.924 13.903-59.849 30.204-1.944-15.481-5.075-30.708-9.367-45.467-1.542-5.304-7.09-8.351-12.394-6.811-5.303 1.542-8.353 7.092-6.811 12.395 5.713 19.647 9.228 40.195 10.449 61.077.327 5.561.493 11.2.493 16.764 0 22.935-2.719 45.484-8.083 67.18-4.479-.972-9.122-1.498-13.887-1.498-4.766 0-9.409.526-13.887 1.498-5.364-21.695-8.083-44.245-8.083-67.18 0-5.563.166-11.203.493-16.767 1.221-20.879 4.736-41.427 10.449-61.074 1.542-5.303-1.507-10.853-6.811-12.395-5.306-1.54-10.852 1.507-12.394 6.811-4.292 14.76-7.423 29.987-9.367 45.468-20.92-16.295-43.311-25.319-59.847-30.203-4.874-1.441-10.193-.81-14.593 1.729-4.401 2.54-7.609 6.832-8.803 11.779-4.036 16.76-7.414 40.656-3.763 66.913-22.809-9.622-46.33-16.247-70.165-19.718-10.723-1.561-20.274 2.483-24.934 10.553-4.659 8.069-3.386 18.364 3.326 26.87 14.937 18.916 32.433 35.971 52.159 50.901-24.562 9.972-43.57 24.847-56.067 36.721-3.684 3.499-5.798 8.417-5.802 13.492-.003 5.082 2.108 10.01 5.801 13.527 12.498 11.876 31.506 26.752 56.068 36.723-19.723 14.928-37.221 31.984-52.161 50.904-6.709 8.503-7.982 18.798-3.323 26.867 3.998 6.924 11.597 10.884 20.448 10.883 1.464 0 2.965-.108 4.487-.33 23.834-3.471 47.355-10.096 70.164-19.718-3.651 26.26-.273 50.156 3.763 66.918 1.192 4.943 4.4 9.235 8.802 11.775 2.849 1.645 6.082 2.488 9.331 2.488 1.769 0 3.543-.25 5.26-.758 16.534-4.881 38.923-13.903 59.848-30.203 3.067 24.582 9.088 48.267 17.998 70.629 4.004 10.064 12.281 16.316 21.602 16.316s17.599-6.252 21.6-16.311c8.912-22.367 14.934-46.053 18.001-70.634 20.92 16.295 43.31 25.318 59.846 30.203 1.719.508 3.492.759 5.262.759 3.249 0 6.482-.845 9.331-2.488 4.401-2.54 7.609-6.832 8.803-11.779 4.036-16.761 7.415-40.659 3.764-66.917 22.799 9.623 46.32 16.25 70.164 19.722 1.523.222 3.021.33 4.486.33 8.849 0 16.45-3.96 20.447-10.883 4.659-8.069 3.386-18.364-3.326-26.87-14.934-18.919-32.43-35.974-52.156-50.904zm-20.268-14.096c-3.796-2.415-7.626-4.739-11.432-6.937-22.022-12.71-45.232-22.494-69.101-29.164 0-.012.001-.023.001-.035s-.001-.023-.001-.035c23.87-6.67 47.08-16.454 69.103-29.165 3.803-2.196 7.631-4.52 11.43-6.936 27.184 7.972 48.2 23.694 61.511 36.136-13.32 12.448-34.333 28.165-61.511 36.136zm53.699-154.901c2.994-.432 4.481.326 4.733.763s.167 2.105-1.702 4.475c-17.634 22.331-39.122 41.91-63.858 58.186-4.727 3.102-9.539 6.069-14.302 8.819-19.871 11.468-40.759 20.387-62.219 26.587-2.892-9.016-7.68-17.19-13.908-24.038 16.122-15.512 34.296-29.146 54.151-40.605 4.92-2.837 9.884-5.513 14.753-7.951.131-.066.261-.135.389-.206 26.383-13.193 53.959-21.951 81.963-26.03zm-157.68-12.335c0-4.436-.099-8.918-.294-13.374 20.498-19.566 44.616-29.886 62.054-35.191 4.121 17.758 7.239 43.811.536 71.338-3.894 2.027-7.818 4.179-11.715 6.426-22.01 12.703-42.1 27.919-59.837 45.287-.014-.008-.029-.017-.043-.025 6.166-24.027 9.299-49.032 9.299-74.461zm3.448 131.1c0 25.044-20.375 45.418-45.418 45.418s-45.418-20.374-45.418-45.418 20.375-45.418 45.419-45.418 45.417 20.374 45.417 45.418zm-149.148-179.665c17.44 5.309 41.562 15.632 62.054 35.191-.195 4.457-.294 8.939-.294 13.374 0 25.428 3.133 50.434 9.3 74.46-.014.008-.029.017-.043.025-17.744-17.375-37.83-32.592-59.826-45.286-3.867-2.233-7.8-4.389-11.736-6.438-6.696-27.521-3.576-53.573.545-71.326zm-98.949 66.141c-1.872-2.372-1.956-4.041-1.704-4.478s1.738-1.196 4.732-.763c27.999 4.077 55.576 12.835 81.973 26.03.121.067.244.132.368.194 4.939 2.475 9.908 5.152 14.771 7.961 19.845 11.453 38.017 25.088 54.145 40.606-6.228 6.848-11.016 15.023-13.908 24.039-21.461-6.2-42.348-15.12-62.217-26.586-4.765-2.751-9.578-5.719-14.294-8.814-24.746-16.282-46.235-35.861-63.866-58.189zm56.728 77.388c3.796 2.414 7.627 4.739 11.432 6.936 22.022 12.71 45.232 22.494 69.101 29.164 0 .012-.001.023-.001.035s.001.023.001.035c-23.869 6.67-47.079 16.454-69.103 29.165-3.803 2.196-7.631 4.52-11.43 6.936-27.184-7.971-48.2-23.694-61.51-36.135 13.319-12.448 34.332-28.165 61.51-36.136zm-53.699 154.901c-2.995.431-4.481-.326-4.733-.763s-.167-2.105 1.702-4.475c17.634-22.331 39.123-41.91 63.858-58.187 4.727-3.102 9.539-6.069 14.302-8.819 19.871-11.468 40.759-20.387 62.219-26.587 2.892 9.016 7.68 17.19 13.908 24.039-16.128 15.519-34.299 29.154-54.146 40.607-4.862 2.808-9.831 5.485-14.77 7.96-.124.062-.247.127-.367.193-26.397 13.197-53.975 21.955-81.973 26.032zm95.92 60.9c-4.121-17.753-7.24-43.802-.545-71.327 3.936-2.049 7.868-4.204 11.734-6.436 21.998-12.695 42.084-27.912 59.828-45.287.014.008.029.017.043.025-6.167 24.027-9.3 49.032-9.3 74.46 0 4.436.099 8.918.294 13.374-20.498 19.566-44.617 29.886-62.054 35.191zm125.207-31.799c-1.708 29.212-8.09 58.404-18.459 84.428-1.114 2.802-2.515 3.708-3.018 3.708s-1.904-.906-3.021-3.713c-10.366-26.019-16.748-55.211-18.457-84.426-.327-5.561-.493-11.2-.493-16.764 0-22.935 2.719-45.484 8.083-67.18 4.479.972 9.122 1.498 13.887 1.498 4.766 0 9.409-.526 13.887-1.498 5.364 21.695 8.083 44.245 8.083 67.18.001 5.564-.165 11.204-.492 16.767zm82.253 31.799c-17.44-5.309-41.562-15.632-62.054-35.191.195-4.457.294-8.939.294-13.374 0-25.428-3.133-50.434-9.3-74.46.014-.008.029-.017.043-.025 17.738 17.368 37.828 32.585 59.841 45.289 3.844 2.217 7.771 4.37 11.722 6.431 6.696 27.522 3.575 53.576-.546 71.33zm100.653-61.663c-.252.436-1.74 1.194-4.732.763-28.142-4.099-55.843-12.92-82.327-26.218-4.974-2.502-9.946-5.184-14.775-7.968-19.857-11.46-38.032-25.095-54.154-40.607 6.228-6.848 11.016-15.022 13.908-24.038 21.461 6.2 42.348 15.12 62.217 26.586 4.765 2.751 9.578 5.719 14.294 8.814 24.746 16.283 46.234 35.862 63.866 58.19 1.871 2.373 1.955 4.041 1.703 4.478z"/><circle cx="256.001" cy="10" r="10"/></g></g></svg>